<svg width="70" height="70" viewBox="0 0 70 70" fill="none" xmlns="http://www.w3.org/2000/svg">
<path d="M25.7622 26.5236C28.1957 26.513 30.6912 27.211 32.5826 28.7844C33.5517 29.5688 34.3346 30.5531 34.9994 31.601C36.1957 29.6672 37.9432 28.0242 40.098 27.2322C42.7238 26.2464 45.6918 26.3146 48.3131 27.2807C50.6027 28.1166 52.6046 29.5734 54.4202 31.1755C55.8407 32.4293 57.1551 33.8013 58.6179 35.0082C59.3887 35.6336 60.217 36.2196 61.1649 36.5437C62.4248 36.9737 63.9149 36.5679 64.8159 35.5972C65.6503 34.6887 65.5988 33.1183 64.6796 32.2885C64.0951 31.7842 63.0957 31.8857 62.6823 32.558C62.3203 33.0911 62.5233 33.7558 62.8064 34.2722C62.0538 33.7225 61.2997 32.9563 61.3027 31.9569C61.1468 30.8015 62.0038 29.7823 63.0305 29.378C65.034 28.5769 67.5462 29.2675 68.8106 31.0316C70.0266 32.6777 70.1235 34.8416 69.9115 36.8026C69.6556 38.6652 68.6138 40.4036 67.0692 41.4818C64.9007 43.0294 62.1523 43.5095 59.5371 43.4761C57.0233 43.408 54.5353 42.8401 52.2063 41.9013C48.3116 40.3355 44.6667 38.1715 40.6447 36.9207C39.3106 36.4028 37.8917 36.1227 36.4652 36.0364C35.3295 36.0288 34.2528 35.9758 33.1807 36.0485C31.8724 36.1742 30.5716 36.4422 29.3465 36.9222C25.2564 38.1943 21.557 40.4127 17.588 41.9815C14.2369 43.2853 10.5238 43.8911 6.96672 43.1672C4.97693 42.7644 2.99623 41.8846 1.65305 40.3173C0.503697 38.9847 -0.0475067 37.2009 0.00700797 35.4534C-0.0565925 33.8043 0.305324 32.0523 1.39562 30.7681C2.4102 29.5506 4.04412 28.9328 5.61294 29.0691C6.62297 29.116 7.64664 29.5567 8.27053 30.3699C8.76116 31.0135 8.79145 31.8948 8.57642 32.6474C8.31444 33.3243 7.77384 33.8528 7.18629 34.2586C7.48612 33.7528 7.66784 33.085 7.31349 32.5565C6.87737 31.8524 5.80374 31.7812 5.23588 32.3597C4.53627 33.079 4.38938 34.2541 4.85882 35.1354C5.36762 36.0591 6.42006 36.5861 7.43918 36.6936C8.98073 36.8268 10.3179 35.8713 11.449 34.9446C13.7901 32.929 15.898 30.6228 18.4951 28.9177C20.6363 27.4821 23.1591 26.5114 25.7622 26.5236Z" fill="#423426"/>
</svg>
