<svg width="70" height="70" viewBox="0 0 70 70" fill="none" xmlns="http://www.w3.org/2000/svg">
<g clip-path="url(#clip0_142_20)">
<path d="M31.8256 1.67146L1.23349 32.2384C0.842519 32.628 0.532302 33.0909 0.320631 33.6006C0.10896 34.1104 0 34.6568 0 35.2088C0 35.7607 0.10896 36.3072 0.320631 36.8169C0.532302 37.3267 0.842519 37.7896 1.23349 38.1792L31.8256 68.7461C32.2159 69.1369 32.6793 69.4469 33.1894 69.6584C33.6996 69.8699 34.2464 69.9787 34.7986 69.9787C35.3509 69.9787 35.8977 69.8699 36.4078 69.6584C36.918 69.4469 37.3814 69.1369 37.7717 68.7461L50.5982 55.9301C52.0713 54.4584 52.0713 52.0721 50.5982 50.6004C49.1254 49.1287 46.7374 49.1287 45.2643 50.6004L35.5405 60.3162C35.131 60.7253 34.5097 60.7253 34.1006 60.3162L9.67041 35.9063C9.26092 35.4972 9.26092 34.8766 9.67041 34.4678L34.1006 10.0576C34.5101 9.64848 35.131 9.64848 35.5405 10.0576L45.2643 19.7734C46.7374 21.2451 49.1254 21.2451 50.5982 19.7734C52.0709 18.3017 52.0713 15.9158 50.5982 14.4441L37.7731 1.62911C36.1214 0.0212425 33.4639 0.0345421 31.8256 1.67146Z" fill="url(#paint0_linear_142_20)"/>
<path d="M31.8256 1.67146L1.23349 32.2384C0.842519 32.628 0.532302 33.0909 0.320631 33.6006C0.10896 34.1104 0 34.6568 0 35.2088C0 35.7607 0.10896 36.3072 0.320631 36.8169C0.532302 37.3267 0.842519 37.7896 1.23349 38.1792L31.8256 68.7461C32.2159 69.1369 32.6793 69.4469 33.1894 69.6584C33.6996 69.8699 34.2464 69.9787 34.7986 69.9787C35.3509 69.9787 35.8977 69.8699 36.4078 69.6584C36.918 69.4469 37.3814 69.1369 37.7717 68.7461L50.5982 55.9301C52.0713 54.4584 52.0713 52.0721 50.5982 50.6004C49.1254 49.1287 46.7374 49.1287 45.2643 50.6004L35.5405 60.3162C35.131 60.7253 34.5097 60.7253 34.1006 60.3162L9.67041 35.9063C9.26092 35.4972 9.26092 34.8766 9.67041 34.4678L34.1006 10.0576C35.1198 9.17914 36.7829 7.39908 39.2252 6.98259C41.0402 6.67355 43.0243 7.35428 45.1782 9.0255L37.7727 1.62911C36.1211 0.0212425 33.4636 0.0341921 31.8253 1.67111L31.8256 1.67146Z" fill="url(#paint1_linear_142_20)"/>
<path d="M53.5595 47.7578C55.0322 49.2295 57.4202 49.2295 58.8933 47.7578L68.355 38.3038C70 36.6602 70 34.0059 68.355 32.363L58.8107 22.8607C57.3345 21.3907 54.9458 21.3925 53.472 22.8653C51.9988 24.337 51.9988 26.7229 53.472 28.1946L59.9181 34.6355C60.3276 35.0446 60.3276 35.6655 59.9181 36.0743L53.5595 42.4281C52.0863 43.8998 52.0863 46.2861 53.5595 47.7578Z" fill="url(#paint2_linear_142_20)"/>
<path d="M34.9514 43.6149C39.5132 43.6149 43.2112 39.9199 43.2112 35.3617C43.2112 30.8036 39.5132 27.1086 34.9514 27.1086C30.3896 27.1086 26.6916 30.8036 26.6916 35.3617C26.6916 39.9199 30.3896 43.6149 34.9514 43.6149Z" fill="url(#paint3_linear_142_20)"/>
</g>
<defs>
<linearGradient id="paint0_linear_142_20" x1="6421.86" y1="0.432996" x2="12235.4" y2="3548.52" gradientUnits="userSpaceOnUse">
<stop stop-color="#4285EB"/>
<stop offset="1" stop-color="#2EC7FF"/>
</linearGradient>
<linearGradient id="paint1_linear_142_20" x1="7201.77" y1="0.433295" x2="4330.07" y2="14833.4" gradientUnits="userSpaceOnUse">
<stop stop-color="#29CDFF"/>
<stop offset="0.379" stop-color="#148EFF"/>
<stop offset="1" stop-color="#0A60FF"/>
</linearGradient>
<linearGradient id="paint2_linear_142_20" x1="2452.81" y1="-681.074" x2="-1283.13" y2="5158.14" gradientUnits="userSpaceOnUse">
<stop stop-color="#FA816E"/>
<stop offset="0.415" stop-color="#F74A5C"/>
<stop offset="1" stop-color="#F51D2C"/>
</linearGradient>
<linearGradient id="paint3_linear_142_20" x1="2277.64" y1="-1150.46" x2="1034.32" y2="3819.93" gradientUnits="userSpaceOnUse">
<stop stop-color="#FA8E7D"/>
<stop offset="0.513" stop-color="#F74A5C"/>
<stop offset="1" stop-color="#F51D2C"/>
</linearGradient>
<clipPath id="clip0_142_20">
<rect width="70" height="70" fill="white"/>
</clipPath>
</defs>
</svg>
