<svg width="70" height="70" viewBox="0 0 70 70" fill="none" xmlns="http://www.w3.org/2000/svg">
<g clip-path="url(#clip0_142_7)">
<path d="M48.5026 48.052C51.0858 47.7846 53.0455 45.5577 52.9564 42.8851C52.8675 40.2128 50.6404 38.0748 47.968 38.0748H47.79C45.0283 38.1639 42.8906 40.48 42.9797 43.2414C43.0689 44.5777 43.6032 45.7357 44.4049 46.5374C41.3763 52.506 36.7443 56.8709 29.7962 60.5232C25.075 63.0175 20.1759 63.9084 15.2767 63.2849C11.2681 62.7504 8.15035 60.9689 6.19035 58.0289C3.34004 53.664 3.07289 48.9426 5.47804 44.2214C7.17062 40.8363 9.84265 38.342 11.5352 37.0948C11.1789 35.9368 10.6444 33.9771 10.3772 32.5519C-2.53914 41.9054 -1.20285 54.5549 2.7166 60.5232C5.65605 64.9775 11.6244 67.739 18.2161 67.739C19.9976 67.739 21.779 67.5607 23.5607 67.1155C34.9628 64.8884 43.6034 58.1181 48.5026 48.052ZM64.1804 37.0059C57.4104 29.0776 47.4338 24.7127 36.0317 24.7127H34.6065C33.8048 23.1093 32.1122 22.0402 30.2416 22.0402H30.0634C27.3022 22.1293 25.1645 24.4453 25.2533 27.207C25.3425 29.8793 27.5693 32.0173 30.2416 32.0173H30.4196C32.3794 31.9282 34.072 30.6811 34.7845 28.9885H36.388C43.158 28.9885 49.5715 30.9482 55.3618 34.7788C59.8156 37.7185 63.0224 41.5491 64.8039 46.1811C66.3182 49.9226 66.229 53.5749 64.6256 56.6929C62.1316 61.4141 57.945 63.9975 52.4221 63.9975C48.8589 63.9975 45.474 62.9284 43.6923 62.1266C42.7126 63.0175 40.9309 64.4427 39.6837 65.3338C43.5143 67.1152 47.4338 68.0952 51.1749 68.0952C59.7264 68.0952 66.051 63.3738 68.4562 58.6526C71.0393 53.4857 70.8611 44.5777 64.1804 37.0059ZM18.9287 49.566C19.0178 52.2386 21.2447 54.3763 23.917 54.3763H24.0953C26.8568 54.2875 28.9945 51.9712 28.9053 49.2097C28.8165 46.5372 26.5893 44.3994 23.917 44.3994H23.739C23.5607 44.3994 23.2933 44.3994 23.1156 44.4883C19.4633 38.4308 17.949 31.8391 18.4836 24.7125C18.8396 19.3676 20.6213 14.7353 23.739 10.9047C26.3222 7.60867 31.3105 6.00523 34.6957 5.91637C44.1377 5.73809 48.1461 17.4967 48.4135 22.2182C49.5715 22.4853 51.5312 23.109 52.8675 23.5545C51.7984 9.12352 42.8906 1.64062 34.3394 1.64062C26.3222 1.64062 18.9287 7.43094 15.989 15.9827C11.8915 27.385 14.5638 38.342 19.5521 46.9829C19.107 47.6063 18.8396 48.586 18.9287 49.566Z" fill="#764ABC"/>
</g>
<defs>
<clipPath id="clip0_142_7">
<rect width="70" height="70" fill="white"/>
</clipPath>
</defs>
</svg>
