<svg width="115" height="70" viewBox="0 0 115 70" fill="none" xmlns="http://www.w3.org/2000/svg">
<g clip-path="url(#clip0_142_14)">
<mask id="mask0_142_14" style="mask-type:luminance" maskUnits="userSpaceOnUse" x="0" y="0" width="115" height="69">
<path d="M0 0H114.545V68.7273H0V0Z" fill="white"/>
</mask>
<g mask="url(#mask0_142_14)">
<path fill-rule="evenodd" clip-rule="evenodd" d="M57.2727 0C42 0 32.4545 7.63636 28.6364 22.9091C34.3636 15.2727 41.0455 12.4091 48.6818 14.3182C53.0388 15.4064 56.1527 18.5691 59.5997 22.067C65.2145 27.7667 71.7139 34.3636 85.9091 34.3636C101.182 34.3636 110.727 26.7273 114.545 11.4545C108.818 19.0909 102.136 21.9545 94.5 20.0455C90.143 18.9573 87.0291 15.7945 83.5821 12.2967C77.9673 6.59697 71.4679 0 57.2727 0ZM28.6364 34.3636C13.3636 34.3636 3.81818 42 0 57.2727C5.72727 49.6364 12.4091 46.7727 20.0455 48.6818C24.4024 49.7721 27.5164 52.9327 30.9633 56.4306C36.5782 62.1303 43.0776 68.7273 57.2727 68.7273C72.5455 68.7273 82.0909 61.0909 85.9091 45.8182C80.1818 53.4545 73.5 56.3182 65.8636 54.4091C61.5067 53.3209 58.3927 50.1582 54.9458 46.6603C49.3309 40.9606 42.8315 34.3636 28.6364 34.3636Z" fill="#38BDF8"/>
</g>
</g>
<defs>
<clipPath id="clip0_142_14">
<rect width="114.545" height="70" fill="white"/>
</clipPath>
</defs>
</svg>
