<svg width="307" height="70" viewBox="0 0 307 70" fill="none" xmlns="http://www.w3.org/2000/svg">
<g clip-path="url(#clip0_112_68)">
<path fill-rule="evenodd" clip-rule="evenodd" d="M149.554 38.5028V0.863505C149.554 0.35632 149.101 -0.0293113 148.601 0.0489322L141.551 1.15831C141.15 1.22119 140.854 1.5677 140.854 1.97428L140.877 40.1487C140.877 41.9539 140.877 53.1008 154.286 53.4906C154.752 53.5046 155.137 53.1302 155.137 52.6649V46.9671C155.137 46.5535 154.831 46.1972 154.422 46.1511C149.553 45.5908 149.553 39.5046 149.553 38.5056L149.554 38.5028Z" fill="white"/>
<path d="M265.827 14.672H258.732C258.276 14.672 257.907 15.0411 257.907 15.4963V52.676C257.907 53.1312 258.276 53.5003 258.732 53.5003H265.827C266.281 53.5003 266.651 53.1312 266.651 52.676V15.4963C266.651 15.0411 266.281 14.672 265.827 14.672Z" fill="white"/>
<path fill-rule="evenodd" clip-rule="evenodd" d="M258.732 10.011H265.825C266.281 10.011 266.65 9.64212 266.65 9.18663V0.863477C266.65 0.357688 266.197 -0.0293403 265.697 0.0489032L258.603 1.15968C258.202 1.22256 257.906 1.56766 257.906 1.97425V9.18663C257.906 9.64212 258.275 10.011 258.73 10.011H258.732Z" fill="white"/>
<path fill-rule="evenodd" clip-rule="evenodd" d="M246.471 38.5028V0.863505C246.471 0.35632 246.019 -0.0293113 245.518 0.0489322L238.468 1.15831C238.067 1.22119 237.771 1.5677 237.771 1.97428L237.795 40.1487C237.795 41.9539 237.795 53.1008 251.204 53.4906C251.669 53.5046 252.055 53.1302 252.055 52.6649V46.9671C252.055 46.5535 251.749 46.1972 251.339 46.1511C246.47 45.5908 246.47 39.5046 246.47 38.5056L246.471 38.5028Z" fill="white"/>
<path fill-rule="evenodd" clip-rule="evenodd" d="M228.017 19.9801C226.46 18.2685 224.548 16.9551 222.319 16.0246C220.095 15.1122 217.672 14.6483 215.044 14.6483C212.42 14.6483 209.993 15.0912 207.79 16.0246C205.611 16.9551 203.697 18.2671 202.095 19.9801C200.492 21.6888 199.247 23.7343 198.356 26.1319C197.464 28.531 197.065 31.3533 197.065 34.286C197.065 37.2188 197.51 39.4375 198.399 41.8603C199.29 44.2803 200.514 46.3467 202.095 48.0583C203.672 49.7671 205.564 51.0791 207.767 52.0347C209.971 52.989 213.373 53.4781 215.089 53.499C216.8 53.499 220.228 52.9653 222.452 52.0347C224.676 51.1014 226.568 49.7671 228.15 48.0583C229.727 46.3467 230.951 44.2803 231.817 41.8603C232.686 39.4375 233.108 37.2188 233.108 34.286C233.108 31.3533 232.642 28.531 231.707 26.1319C230.816 23.7329 229.592 21.6888 228.014 19.9801H228.017ZM221.809 42.8593C220.207 45.0599 217.958 46.1707 215.09 46.1707C212.219 46.1707 209.972 45.0809 208.369 42.8593C206.767 40.6587 205.965 38.1074 205.965 34.3084C205.965 30.5513 206.746 27.4425 208.349 25.2447C209.948 23.0441 212.196 21.9585 215.065 21.9585C217.936 21.9585 220.183 23.0455 221.784 25.2447C223.387 27.4202 224.21 30.5513 224.21 34.3084C224.21 38.1074 223.41 40.6377 221.808 42.8593H221.809Z" fill="white"/>
<path fill-rule="evenodd" clip-rule="evenodd" d="M124.968 14.672H118.076C111.319 14.672 105.374 18.2321 101.903 23.6281C99.8745 26.783 98.691 30.5624 98.691 34.6283C98.691 40.9003 101.504 46.4934 105.899 50.1512C106.309 50.5145 106.745 50.847 107.2 51.1488C108.997 52.3351 111.128 53.0309 113.42 53.0309C113.592 53.0309 113.764 53.0267 113.935 53.0183C113.985 53.0155 114.034 53.0113 114.084 53.0085C114.206 53.0015 114.329 52.9932 114.45 52.9806C114.498 52.9764 114.545 52.9694 114.593 52.9638C114.72 52.9498 114.847 52.9345 114.974 52.9163C115.003 52.9121 115.033 52.9065 115.062 52.9023C119.658 52.194 123.663 48.5961 124.968 44.1265V52.2065C124.968 52.662 125.337 53.0309 125.793 53.0309H132.837C133.293 53.0309 133.662 52.662 133.662 52.2065V15.4963C133.662 15.0409 133.293 14.672 132.837 14.672H124.968ZM124.968 43.583C123.264 45.0025 121.06 45.5363 118.703 45.6955C118.681 45.6969 118.657 45.6997 118.635 45.7011C118.478 45.7109 118.322 45.7151 118.165 45.7151C112.263 45.7151 107.39 40.7005 107.39 34.6255C107.39 33.1934 107.664 31.8297 108.147 30.5764C109.715 26.5077 113.564 23.6267 118.076 23.6267H124.968V43.583Z" fill="white"/>
<path fill-rule="evenodd" clip-rule="evenodd" d="M298.159 14.672H291.267C284.51 14.672 278.565 18.2321 275.094 23.6281C273.066 26.783 271.882 30.5624 271.882 34.6283C271.882 40.9003 274.695 46.4934 279.09 50.1512C279.5 50.5145 279.936 50.847 280.391 51.1488C282.188 52.3351 284.319 53.0309 286.612 53.0309C286.783 53.0309 286.955 53.0267 287.126 53.0183C287.176 53.0155 287.225 53.0113 287.275 53.0085C287.397 53.0015 287.52 52.9932 287.641 52.9806C287.689 52.9764 287.736 52.9694 287.784 52.9638C287.911 52.9498 288.038 52.9345 288.165 52.9163C288.195 52.9121 288.224 52.9065 288.253 52.9023C292.849 52.194 296.854 48.5961 298.159 44.1265V52.2065C298.159 52.662 298.528 53.0309 298.984 53.0309H306.029C306.484 53.0309 306.853 52.662 306.853 52.2065V15.4963C306.853 15.0409 306.484 14.672 306.029 14.672H298.159ZM298.159 43.583C296.455 45.0025 294.251 45.5363 291.894 45.6955C291.872 45.6969 291.848 45.6997 291.826 45.7011C291.669 45.7109 291.513 45.7151 291.356 45.7151C285.455 45.7151 280.581 40.7005 280.581 34.6255C280.581 33.1934 280.855 31.8297 281.339 30.5764C282.906 26.5077 286.755 23.6267 291.267 23.6267H298.159V43.583Z" fill="white"/>
<path fill-rule="evenodd" clip-rule="evenodd" d="M183.6 14.672H176.707C169.95 14.672 164.005 18.2321 160.535 23.6281C158.887 26.1906 157.796 29.1666 157.445 32.3732C157.364 33.1137 157.323 33.8654 157.323 34.6283C157.323 35.3912 157.366 36.1862 157.452 36.9462C158.05 42.2682 160.686 46.9516 164.531 50.1526C164.94 50.5159 165.376 50.8484 165.832 51.1502C167.628 52.3365 169.759 53.0323 172.052 53.0323C174.565 53.0323 176.888 52.2037 178.781 50.8009C181.057 49.183 182.816 46.8133 183.598 44.1293V51.1516H183.583V52.6997C183.583 55.7512 182.785 58.0468 181.16 59.5963C179.538 61.1445 176.823 61.9199 173.022 61.9199C171.468 61.9199 168.999 61.8375 166.511 61.5832C166.115 61.5427 165.748 61.7928 165.635 62.1728L163.849 68.1961C163.706 68.6796 164.026 69.177 164.524 69.2482C167.531 69.6786 170.465 69.9021 172.159 69.9021C178.993 69.9021 184.058 68.4001 187.374 65.4017C190.375 62.6898 192.005 58.5708 192.292 53.0337V15.4991C192.292 15.0437 191.923 14.6748 191.467 14.6748H183.598L183.6 14.672ZM183.6 23.6281C183.6 23.6281 183.691 43.0674 183.6 43.6584C181.912 45.0235 179.812 45.5572 177.523 45.7123C177.501 45.7137 177.477 45.7165 177.455 45.7179C177.298 45.7277 177.142 45.7319 176.985 45.7319C176.801 45.7319 176.618 45.7277 176.435 45.7179C170.789 45.4231 166.023 40.5119 166.023 34.6269C166.023 33.1948 166.297 31.8311 166.78 30.5778C168.348 26.5091 172.197 23.6281 176.709 23.6281H183.601H183.6Z" fill="white"/>
<path d="M34.9058 0.039174C15.8298 0.039174 0.278931 15.4196 0.00368131 34.4314C-0.275759 53.7394 15.3897 69.7388 34.7004 69.8505C40.6637 69.8855 46.4076 68.4268 51.5088 65.6547C52.0062 65.3851 52.0831 64.7004 51.6597 64.326L48.393 61.431C47.7294 60.8428 46.7849 60.6765 45.9675 61.023C42.4074 62.5376 38.5386 63.3116 34.5509 63.2627C18.9469 63.0713 6.34002 50.0885 6.5887 34.4859C6.83461 19.0803 19.443 6.6242 34.9058 6.6242H63.2258V56.9613L47.1579 42.6847C46.6382 42.2222 45.8418 42.313 45.4226 42.8677C42.8433 46.2825 38.642 48.4062 33.9753 48.0849C27.502 47.6378 22.2569 42.4262 21.7721 35.9557C21.1923 28.2376 27.3092 21.7713 34.9058 21.7713C41.7773 21.7713 47.436 27.0597 48.027 33.7803C48.0801 34.3783 48.3497 34.9358 48.7982 35.334L52.9829 39.0436C53.4579 39.4641 54.211 39.207 54.3284 38.5825C54.6302 36.9687 54.7364 35.2879 54.6176 33.5637C53.9441 23.7358 45.9829 15.829 36.1507 15.224C24.8781 14.5296 15.4539 23.3474 15.1549 34.4006C14.8629 45.1731 23.6891 54.4589 34.4629 54.6965C38.9605 54.7957 43.1298 53.3817 46.4984 50.931L67.4928 69.5418C68.3926 70.3396 69.8136 69.701 69.8136 68.4981V1.36093C69.8136 0.628789 69.2212 0.036377 68.4891 0.036377H34.9058V0.039174Z" fill="white"/>
</g>
<defs>
<clipPath id="clip0_112_68">
<rect width="306.966" height="70" fill="white"/>
</clipPath>
</defs>
</svg>
