<svg width="140" height="140" viewBox="0 0 140 140" fill="none" xmlns="http://www.w3.org/2000/svg">
<path fill-rule="evenodd" clip-rule="evenodd" d="M65.7393 27.7821H54.2607C47.9212 27.7821 42.7821 32.9212 42.7821 39.2607C42.7821 45.6001 47.9212 50.7393 54.2607 50.7393H65.7393V27.7821ZM65.7393 20H73.5214H85C95.6377 20 104.26 28.6233 104.26 39.2607C104.26 45.538 101.258 51.1141 96.6097 54.6303C101.258 58.1467 104.26 63.7227 104.26 70C104.26 80.6374 95.6377 89.2607 85 89.2607C80.6989 89.2607 76.7271 87.8509 73.5214 85.4682V89.2607V100.739C73.5214 111.377 64.898 120 54.2607 120C43.6233 120 35 111.377 35 100.739C35 94.4615 38.003 88.8859 42.6507 85.3696C38.003 81.8533 35 76.2773 35 70C35 63.7227 38.003 58.1467 42.6509 54.6304C38.003 51.1141 35 45.538 35 39.2607C35 28.6233 43.6233 20 54.2607 20H65.7393ZM73.5214 27.7821V50.7393H85C91.3396 50.7393 96.4782 45.6001 96.4782 39.2607C96.4782 32.9212 91.3396 27.7821 85 27.7821H73.5214ZM54.2607 81.4785H65.7393V70.0296V70V69.9705V58.5214H54.2607C47.9212 58.5214 42.7821 63.6606 42.7821 70C42.7821 76.3243 47.8966 81.454 54.2152 81.4785L54.2607 81.4785ZM42.7821 100.739C42.7821 94.4148 47.8966 89.2852 54.2152 89.2607L54.2607 89.2607H65.7393V100.739C65.7393 107.079 60.6001 112.218 54.2607 112.218C47.9212 112.218 42.7821 107.079 42.7821 100.739ZM73.5214 69.9772C73.5337 63.6482 78.6681 58.5214 85 58.5214C91.3396 58.5214 96.4782 63.6606 96.4782 70C96.4782 76.3395 91.3396 81.4786 85 81.4786C78.6681 81.4786 73.5337 76.3519 73.5214 70.0229V69.9772Z" fill="white"/>
</svg>
