<svg width="160" height="160" viewBox="0 0 160 160" fill="none" xmlns="http://www.w3.org/2000/svg">
<path d="M159.346 90.1582C164.945 46.3261 133.99 6.25329 90.2382 0.654301C46.4861 -4.94469 6.25329 26.0097 0.654301 69.7619C-4.94469 113.514 26.0097 153.667 69.7619 159.346C113.594 164.945 153.667 133.99 159.346 90.1582Z" fill="#323330"/>
<path d="M108.875 51.3651L75.1209 85.119L65.6026 75.6007C98.7966 42.4067 102.076 45.2862 108.875 51.3651Z" fill="#323330"/>
<path d="M75.1209 85.9188C74.881 85.9188 74.721 85.8388 74.561 85.6789L64.9627 76.1606C64.6428 75.8406 64.6428 75.3607 64.9627 75.0408C98.7167 41.2869 102.236 44.4863 109.355 50.8851C109.515 51.0451 109.595 51.2051 109.595 51.445C109.595 51.685 109.515 51.845 109.355 52.0049L75.6008 85.6789C75.5208 85.8388 75.2809 85.9188 75.1209 85.9188ZM66.7224 75.6007L75.1209 83.9992L107.675 51.445C101.756 46.166 97.7568 44.5663 66.7224 75.6007Z" fill="white"/>
<path d="M84.7992 94.7972L75.6008 85.5989L109.355 51.845C118.393 60.9633 104.876 75.7607 84.7992 94.7972Z" fill="#323330"/>
<path d="M84.7992 95.5971C84.5592 95.5971 84.3992 95.5172 84.2393 95.3572L75.0409 86.1588C74.881 85.9989 74.881 85.8389 74.881 85.5989C74.881 85.359 74.9609 85.199 75.1209 85.039L108.875 51.2851C109.195 50.9652 109.675 50.9652 109.995 51.2851C112.074 53.2048 113.194 55.9243 113.114 58.7238C112.954 67.6022 102.876 78.8802 85.4391 95.3572C85.1991 95.5172 84.9591 95.5971 84.7992 95.5971ZM76.7206 85.5989C81.8397 90.798 83.9993 92.8776 84.7992 93.6775C98.2368 80.8798 111.274 67.7622 111.354 58.7238C111.434 56.6442 110.635 54.5645 109.275 52.9648L76.7206 85.5989Z" fill="#323330"/>
<path d="M65.7626 75.8409L72.5614 82.6396C72.7213 82.7996 72.7213 82.9596 72.5614 83.1196C72.4814 83.1995 72.4814 83.1995 72.4014 83.1995L58.3239 86.239C57.6041 86.319 56.9642 85.8391 56.8042 85.1192C56.7242 84.7193 56.8842 84.3193 57.1241 84.0794L65.2827 75.9208C65.4426 75.7609 65.6826 75.6809 65.7626 75.8409Z" fill="#323330"/>
<path d="M58.084 87.0388C56.8842 87.0388 56.0043 86.079 56.0043 84.8792C56.0043 84.3193 56.2443 83.7594 56.6442 83.3595L64.8028 75.2009C65.2827 74.801 65.9226 74.801 66.4025 75.2009L73.2012 81.9997C73.6812 82.3997 73.6812 83.1195 73.2012 83.5994C73.0413 83.7594 72.8813 83.8394 72.6413 83.9194L58.5639 86.9588C58.4039 86.9588 58.2439 87.0388 58.084 87.0388ZM65.5226 76.7207L57.684 84.5593C57.5241 84.7192 57.4441 84.9592 57.6041 85.1991C57.684 85.4391 57.924 85.5191 58.164 85.4391L71.3616 82.5596L65.5226 76.7207Z" fill="white"/>
<path d="M126.712 32.6485C121.593 27.6894 113.354 27.8494 108.395 33.0484C103.436 38.2475 103.596 46.406 108.795 51.3651C113.034 55.4444 119.433 56.1643 124.472 53.1248L115.354 44.0065L126.712 32.6485Z" fill="#323330"/>
<path d="M117.753 55.7643C110.155 55.7643 103.996 49.6054 103.996 42.0068C103.996 34.4082 110.155 28.2493 117.753 28.2493C121.273 28.2493 124.712 29.609 127.272 32.0886C127.431 32.2485 127.511 32.4085 127.511 32.6485C127.511 32.8884 127.431 33.0484 127.272 33.2084L116.473 44.0064L124.952 52.4849C125.272 52.8048 125.272 53.2848 124.952 53.6047C124.872 53.6847 124.872 53.6847 124.792 53.7647C122.712 55.0444 120.233 55.7643 117.753 55.7643ZM117.753 29.929C111.034 29.929 105.595 35.368 105.675 42.0868C105.675 48.8056 111.114 54.2446 117.833 54.1646C119.673 54.1646 121.513 53.7647 123.192 52.8848L114.794 44.5663C114.634 44.4064 114.554 44.2464 114.554 44.0064C114.554 43.7665 114.634 43.6065 114.794 43.4465L125.512 32.7285C123.352 30.8888 120.633 29.929 117.753 29.929Z" fill="white"/>
<path d="M126.952 32.8885L126.792 32.7285L115.354 44.0065L124.392 53.0449C125.272 52.485 126.152 51.8451 126.872 51.1252C131.991 46.0861 131.991 37.9276 126.952 32.8885Z" fill="#323330"/>
<path d="M124.472 53.9248C124.232 53.9248 124.072 53.8448 123.912 53.6848L114.794 44.5665C114.634 44.4065 114.554 44.2465 114.554 44.0066C114.554 43.7666 114.634 43.6066 114.794 43.4467L126.152 32.0887C126.472 31.7688 126.952 31.7688 127.272 32.0887L127.511 32.2487C132.871 37.6077 132.871 46.2462 127.591 51.6852C126.792 52.485 125.912 53.2049 124.952 53.7648C124.712 53.8448 124.552 53.9248 124.472 53.9248ZM116.473 44.0066L124.552 52.0851C125.192 51.6852 125.832 51.1253 126.312 50.6454C130.871 46.0862 131.111 38.6475 126.712 33.8484L116.473 44.0066Z" fill="white"/>
<path d="M110.235 52.805C108.315 50.8853 105.195 50.8853 103.276 52.805L73.1213 82.9596L78.1604 87.9986L110.075 60.0037C112.154 58.244 112.314 55.1246 110.555 53.0449C110.395 52.9649 110.315 52.885 110.235 52.805Z" fill="#323330"/>
<path d="M78.0804 88.7984C77.8404 88.7984 77.6804 88.7184 77.5205 88.5585L72.4814 83.5194C72.1614 83.1994 72.1614 82.7195 72.4814 82.3996L102.636 52.245C104.876 50.0054 108.475 50.0054 110.715 52.245C112.954 54.4846 112.954 58.084 110.715 60.3236C110.635 60.4035 110.555 60.4835 110.475 60.5635L78.5603 88.5585C78.4803 88.7184 78.3203 88.7984 78.0804 88.7984ZM74.2411 82.9595L78.1604 86.8788L109.515 59.3637C111.274 57.924 111.434 55.2845 109.995 53.5248C108.555 51.7651 105.915 51.6051 104.156 53.0449C104.076 53.1248 103.996 53.2048 103.836 53.2848L74.2411 82.9595Z" fill="white"/>
<path d="M50.0054 117.273C49.6855 117.433 49.5255 117.753 49.6055 118.073L50.9652 123.832C51.2852 124.632 50.8053 125.592 49.9254 125.832C49.2855 126.072 48.5657 125.832 48.1658 125.352L39.3673 116.634L68.0822 87.9187L78.0004 88.0787L84.7192 94.7975C83.1195 96.1572 73.4412 105.516 50.0054 117.273Z" fill="#323330"/>
<path d="M49.3655 126.631C48.7256 126.631 48.0858 126.391 47.6858 125.912L38.9674 117.193C38.8074 117.033 38.7274 116.873 38.7274 116.633C38.7274 116.393 38.8074 116.233 38.9674 116.073L67.6822 87.3585C67.8422 87.1985 68.0822 87.1185 68.2421 87.1185L78.1603 87.2785C78.4003 87.2785 78.5603 87.3585 78.7202 87.5185L85.439 94.2373C85.599 94.3972 85.679 94.6372 85.679 94.8771C85.679 95.1171 85.599 95.2771 85.3591 95.437L84.7991 95.9169C76.3207 103.356 64.8027 110.794 50.4853 117.913L51.8451 123.592C52.085 124.632 51.6051 125.752 50.6453 126.311C50.1654 126.551 49.7655 126.631 49.3655 126.631ZM40.5671 116.633L48.8056 124.792C49.0456 125.192 49.5255 125.352 49.9254 125.112C50.3254 124.872 50.4853 124.392 50.2454 123.992L48.8856 118.233C48.7256 117.513 49.0456 116.873 49.6855 116.553C63.8429 109.435 75.2809 102.076 83.6794 94.7971L77.7604 88.8782L68.5621 88.7182L40.5671 116.633Z" fill="white"/>
<path d="M32.5686 123.512L39.4473 116.634L49.6855 126.872L33.3684 125.752C32.6485 125.672 32.1686 125.032 32.2486 124.312C32.2486 123.992 32.3286 123.672 32.5686 123.512Z" fill="#323330"/>
<path d="M49.6855 127.592L33.2884 126.472C32.0887 126.392 31.2888 125.352 31.3688 124.152C31.4488 123.672 31.6087 123.192 32.0087 122.872L38.8874 115.994C39.2074 115.674 39.6873 115.674 40.0072 115.994L50.2454 126.232C50.4853 126.472 50.5653 126.792 50.4054 127.112C50.2454 127.432 50.0054 127.592 49.6855 127.592ZM39.4473 117.753L33.1285 124.072C32.8885 124.232 32.8885 124.632 33.1285 124.792C33.2084 124.872 33.2884 124.952 33.4484 124.952L47.6059 125.912L39.4473 117.753Z" fill="white"/>
<path d="M65.2827 91.5978C64.8028 91.5978 64.4828 91.1979 64.4828 90.798C64.4828 90.558 64.5628 90.398 64.7228 90.2381L72.4814 82.4795C72.8013 82.1595 73.2812 82.1595 73.6012 82.4795L78.6403 87.5185C78.8802 87.7585 78.9602 87.9985 78.8802 88.3184C78.8002 88.5584 78.5603 88.7983 78.2403 88.8783L65.4426 91.5978C65.3627 91.5978 65.2827 91.5978 65.2827 91.5978ZM73.0413 84.1592L67.7622 89.4382L76.4007 87.5985L73.0413 84.1592Z" fill="white"/>
<path d="M78.0004 88.0785L69.202 89.9981C68.5621 90.1581 67.9222 89.7582 67.7622 89.1183C67.6822 88.7184 67.7622 88.3184 68.0822 87.9985L72.9613 83.1194L78.0004 88.0785Z" fill="#323330"/>
<path d="M69.042 90.798C67.9222 90.798 67.0424 89.9181 67.0424 88.7983C67.0424 88.2384 67.2823 87.7585 67.6023 87.3586L72.4814 82.4795C72.8013 82.1595 73.2812 82.1595 73.6012 82.4795L78.6403 87.5185C78.8802 87.7585 78.9602 87.9985 78.8802 88.3184C78.8002 88.5584 78.5603 88.7983 78.2403 88.8783L69.4419 90.798C69.282 90.798 69.122 90.798 69.042 90.798ZM73.0413 84.1592L68.7221 88.4784C68.5621 88.6383 68.5621 88.7983 68.6421 88.9583C68.7221 89.1183 68.882 89.1982 69.122 89.1982L76.4807 87.5985L73.0413 84.1592Z" fill="white"/>
<path d="M127.032 40.5671C126.872 40.0872 126.312 39.8473 125.832 40.0072C125.352 40.1672 125.112 40.7271 125.272 41.207C125.272 41.287 125.352 41.367 125.352 41.447C125.832 42.4068 125.672 43.6066 125.032 44.4864C124.712 44.8864 124.792 45.4463 125.112 45.7662C125.512 46.0861 126.072 46.0062 126.392 45.6062C127.591 44.0865 127.831 42.1669 127.032 40.5671Z" fill="white"/>
</svg>
