<svg width="120" height="120" viewBox="0 0 120 120" fill="none" xmlns="http://www.w3.org/2000/svg">
<path d="M54.96 1.60122C57.96 -0.0975327 61.785 -0.105033 64.71 1.60122L109.5 26.85C112.301 28.425 114.176 31.5487 114.15 34.7775V85.4025C114.169 88.7662 112.11 91.9575 109.155 93.5025L64.605 118.635C63.0812 119.477 61.3598 119.896 59.6195 119.848C57.8793 119.799 56.1836 119.286 54.7087 118.361L41.34 110.636C40.4287 110.092 39.405 109.661 38.76 108.78C39.33 108.015 40.3425 107.917 41.1675 107.58C43.0275 106.987 44.73 106.08 46.44 105.12C46.8712 104.82 47.4 104.932 47.8125 105.202L59.2125 111.795C60.0262 112.264 60.8512 111.645 61.5487 111.251L105.292 86.565C105.832 86.3025 106.132 85.7325 106.088 85.14V35.0025C106.147 34.3275 105.761 33.7125 105.15 33.4387L60.7125 8.41497C60.4564 8.23784 60.1526 8.14265 59.8412 8.14198C59.5298 8.14131 59.2256 8.2352 58.9688 8.41122L14.595 33.4875C13.995 33.7612 13.5825 34.3687 13.6575 35.0437V85.1812C13.605 85.7737 13.92 86.3325 14.4637 86.5875L26.3212 93.2812C28.5487 94.4812 31.2825 95.1562 33.735 94.275C34.8082 93.8705 35.7322 93.1476 36.383 92.2033C37.0338 91.2589 37.3804 90.1381 37.3762 88.9912L37.3875 39.1537C37.335 38.415 38.0325 37.8037 38.7487 37.8787H44.4487C45.1987 37.86 45.7875 38.655 45.6862 39.3975L45.675 89.55C45.6787 94.005 43.8487 98.85 39.7275 101.036C34.65 103.661 28.3725 103.11 23.355 100.586L10.605 93.5362C7.60499 92.0362 5.59124 88.7962 5.60999 85.4362V34.8112C5.62247 33.1658 6.07481 31.5537 6.92012 30.142C7.76543 28.7303 8.97295 27.5704 10.4175 26.7825L54.96 1.60122ZM67.875 36.6937C74.3512 36.3187 81.285 36.4462 87.1125 39.6375C91.6237 42.0825 94.125 47.2125 94.2075 52.23C94.08 52.905 93.375 53.28 92.73 53.2312C90.855 53.2275 88.9725 53.2575 87.09 53.22C86.2913 53.25 85.83 52.515 85.7287 51.81C85.1887 49.41 83.88 47.0362 81.6225 45.8775C78.1575 44.1412 74.1375 44.2275 70.3575 44.265C67.5975 44.415 64.6312 44.6512 62.295 46.2712C60.495 47.5012 59.955 50.0212 60.5962 51.9787C61.1963 53.415 62.8575 53.8762 64.2112 54.3037C72.0187 56.3437 80.2875 56.1787 87.9487 58.83C91.1175 59.925 94.2188 62.055 95.3063 65.3737C96.7237 69.8212 96.105 75.1387 92.9437 78.7087C90.3787 81.6487 86.6437 83.2087 82.9125 84.1162C77.9512 85.2225 72.8062 85.2487 67.77 84.7537C63.0337 84.2137 58.1063 82.9687 54.45 79.7437C51.3225 77.0287 49.8 72.7987 49.95 68.7187C49.9875 68.0287 50.6737 67.5487 51.3375 67.605H56.9625C57.72 67.5525 58.275 68.205 58.3125 68.9175C58.6612 71.1675 59.52 73.605 61.515 74.9175C65.3625 77.4 70.1888 77.2275 74.5912 77.2987C78.24 77.1375 82.335 77.0887 85.3162 74.6737C86.8912 73.2975 87.3525 70.9987 86.9287 69.0187C86.4675 67.3462 84.6787 66.57 83.1787 66.0187C75.4725 63.5812 67.11 64.4662 59.4787 61.7062C56.3812 60.6112 53.385 58.5412 52.1962 55.3575C50.535 50.8575 51.2962 45.2812 54.795 41.8312C58.17 38.4 63.12 37.0762 67.8075 36.6037L67.875 36.6937Z" fill="white"/>
</svg>
