<svg width="164" height="70" viewBox="0 0 164 70" fill="none" xmlns="http://www.w3.org/2000/svg">
<path d="M6.98006 44.4729C6.98006 41.6809 5.18518 38.6895 0 38.49V31.51C5.18518 31.3105 6.98006 28.3191 6.98006 25.5271C6.98006 20.5413 6.18234 17.3504 6.18234 11.567C6.18234 2.79202 9.37322 0 16.5527 0H35.698V6.38177H20.1425C16.7521 6.38177 15.755 7.57835 15.755 11.9658C15.755 16.3533 16.1538 20.3419 16.1538 25.1282C16.1538 31.3105 14.1595 33.7037 10.1709 34.7009V35.0997C14.1595 36.0969 16.1538 38.49 16.1538 44.6724C16.1538 49.6581 15.755 53.4473 15.755 57.8348C15.755 62.2222 16.7521 63.6182 20.1425 63.6182H21.7379V69.8006H16.5527C9.37322 69.8006 6.18234 67.0086 6.18234 58.2336C6.18234 52.4501 6.98006 49.4587 6.98006 44.4729ZM23.9316 0.598292H35.8974V45.4701C35.8974 48.0627 37.094 48.8604 38.0912 48.8604C38.49 48.8604 38.8889 48.8604 39.4872 48.661L40.8832 57.4359C39.4872 58.0342 37.4929 58.433 34.9003 58.433C26.7236 58.433 23.9316 53.0484 23.9316 44.8718V0.598292ZM57.6353 16.1538C69.0028 16.1538 74.7863 24.5299 74.7863 35.4986C74.7863 37.6923 74.5869 39.4872 74.3875 40.4843H49.8575C50.8547 46.6667 55.0427 49.2593 60.4273 49.2593C63.4188 49.2593 66.2108 48.4615 69.2023 46.6667L73.1909 53.8462C69.0028 56.6382 63.6182 58.433 58.8319 58.433C47.2649 58.433 38.49 50.6553 38.49 37.2934C38.2906 24.3305 47.8632 16.1538 57.6353 16.1538ZM64.6154 33.1054C64.6154 28.5185 62.6211 25.1282 57.8348 25.1282C54.0456 25.1282 50.8547 27.7208 50.057 33.1054H64.6154ZM81.5669 45.4701C85.1567 48.2621 88.547 49.6581 91.9373 49.6581C95.5271 49.6581 97.1225 48.2621 97.1225 46.2678C97.1225 43.6752 93.1339 42.2792 88.9459 40.6838C84.1595 38.8889 78.3761 35.4986 78.3761 28.9174C78.3761 21.5385 84.5584 16.3533 93.7322 16.3533C99.9145 16.3533 104.501 18.9459 107.892 21.5385L102.507 28.718C99.5157 26.5242 96.9231 25.3276 93.9316 25.3276C90.9402 25.3276 89.3447 26.5242 89.3447 28.5185C89.3447 31.1111 93.1339 32.1083 97.3219 33.7037C102.507 35.4986 108.291 38.49 108.291 45.8689C108.291 53.2479 102.507 58.8319 91.7379 58.8319C86.5527 58.8319 80.3704 56.6382 76.3818 53.2479L81.5669 45.4701ZM114.074 45.4701C117.664 48.2621 121.054 49.6581 124.444 49.6581C128.034 49.6581 129.63 48.2621 129.63 46.2678C129.63 43.6752 125.641 42.2792 121.453 40.6838C116.667 38.8889 110.883 35.4986 110.883 28.9174C110.883 21.5385 117.066 16.3533 126.239 16.3533C132.422 16.3533 137.009 18.9459 140.399 21.5385L135.014 28.718C132.023 26.5242 129.43 25.3276 126.439 25.3276C123.447 25.3276 121.852 26.5242 121.852 28.5185C121.852 31.1111 125.641 32.1083 129.63 33.7037C134.815 35.4986 140.598 38.49 140.598 45.8689C140.598 53.2479 134.815 58.8319 124.046 58.8319C118.86 58.8319 112.678 56.6382 108.689 53.2479L114.074 45.4701ZM143.59 63.4188C146.98 63.4188 147.977 62.2222 147.977 57.6353C147.977 53.2479 147.578 49.2593 147.578 44.4729C147.578 38.2906 149.573 35.8974 153.561 34.9003V34.5014C149.573 33.5043 147.578 31.1111 147.578 24.9288C147.578 20.1425 147.977 15.9544 147.977 11.7664C147.977 7.37891 147.179 6.18234 143.59 6.18234H141.994V0H147.179C154.359 0 157.55 2.79202 157.55 11.5669C157.55 17.151 156.752 20.3419 156.752 25.5271C156.752 28.3191 158.547 31.3105 163.732 31.51V38.49C158.547 38.6895 156.752 41.6809 156.752 44.4729C156.752 49.6581 157.55 52.6496 157.55 58.4331C157.55 67.208 154.359 70 147.179 70H141.994V63.6182L143.59 63.4188Z" fill="white"/>
</svg>
