<svg width="80" height="70" viewBox="0 0 80 70" fill="none" xmlns="http://www.w3.org/2000/svg">
<path d="M2.36836 30.0258L25.5078 9.74375L32.2735 15.6988C31.8357 17.1779 31.9625 18.7418 32.6346 20.1521C33.3068 21.5624 34.4874 22.7417 35.9967 23.5103V42.9167C34.7807 43.531 33.7707 44.4142 33.068 45.4779C32.3654 46.5415 31.9947 47.7482 31.9933 48.9768C31.9933 50.8348 32.8369 52.6168 34.3384 53.9307C35.84 55.2445 37.8765 55.9827 40 55.9827C42.1236 55.9827 44.1601 55.2445 45.6617 53.9307C47.1632 52.6168 48.0068 50.8348 48.0068 48.9768C48.0053 47.7482 47.6347 46.5415 46.932 45.4779C46.2294 44.4142 45.2194 43.531 44.0034 42.9167V25.8923L52.2904 33.2135C52.0524 33.7725 51.9568 34.3703 52.0101 34.965C52.0101 36.3506 52.4797 37.7051 53.3595 38.8572C54.2393 40.0094 55.4898 40.9073 56.9528 41.4376C58.4159 41.9678 60.0258 42.1066 61.5789 41.8363C63.1321 41.5659 64.5587 40.8987 65.6785 39.9189C66.7983 38.9391 67.5608 37.6908 67.8698 36.3318C68.1787 34.9727 68.0202 33.5641 67.4141 32.2839C66.8081 31.0038 65.7819 29.9096 64.4652 29.1398C63.1485 28.37 61.6005 27.9591 60.0169 27.9591C59.3372 27.9124 58.6541 27.9961 58.0152 28.2043L47.7265 19.2017C48.2063 17.5795 48.0056 15.8605 47.1609 14.3566C46.3163 12.8527 44.8835 11.6635 43.1227 11.0048C41.494 10.4345 39.7022 10.3243 37.9984 10.6895L31.1926 4.76956L34.3553 2.03726C35.8554 0.732409 37.8848 0 40 0C42.1153 0 44.1446 0.732409 45.6448 2.03726L77.6717 30.0608C79.163 31.3735 80 33.1491 80 35C80 36.8509 79.163 38.6265 77.6717 39.9392L45.6448 67.9627C44.1446 69.2676 42.1153 70 40 70C37.8848 70 35.8554 69.2676 34.3553 67.9627L2.32832 39.9392C1.58651 39.2862 0.999053 38.5117 0.599551 37.66C0.200048 36.8082 -0.00366807 35.8959 4.99904e-05 34.9752C0.00376805 34.0545 0.214847 33.1435 0.621219 32.2943C1.02759 31.445 1.62129 30.6742 2.36836 30.0258Z" fill="white"/>
</svg>
