<svg width="70" height="70" viewBox="0 0 70 70" fill="none" xmlns="http://www.w3.org/2000/svg">
<g clip-path="url(#clip0_146_14)">
<path d="M34.962 69.8141C54.2164 69.8141 69.8253 54.2053 69.8253 34.9508C69.8253 15.6963 54.2164 0.0875244 34.962 0.0875244C15.7075 0.0875244 0.0986938 15.6963 0.0986938 34.9508C0.0986938 54.2053 15.7075 69.8141 34.962 69.8141Z" fill="white"/>
<path d="M58.0136 61.1061L26.8824 21.0055H21.0167V48.8848H25.7093V26.9645L54.3303 63.9431C55.6196 63.0802 56.8501 62.1325 58.0136 61.1061Z" fill="url(#paint0_linear_146_14)"/>
<path fill-rule="evenodd" clip-rule="evenodd" d="M44.6461 21.0055H49.2943V48.8961H44.6461V21.0055Z" fill="url(#paint1_linear_146_14)"/>
</g>
<defs>
<linearGradient id="paint0_linear_146_14" x1="42.3222" y1="45.2165" x2="56.0738" y2="62.2608" gradientUnits="userSpaceOnUse">
<stop stop-color="#1E1E1E"/>
<stop offset="1" stop-color="white" stop-opacity="0"/>
</linearGradient>
<linearGradient id="paint1_linear_146_14" x1="46.9702" y1="21.0061" x2="46.8923" y2="41.4883" gradientUnits="userSpaceOnUse">
<stop stop-color="#1E1E1E"/>
<stop offset="1" stop-color="white" stop-opacity="0"/>
</linearGradient>
<clipPath id="clip0_146_14">
<rect width="70" height="70" fill="white"/>
</clipPath>
</defs>
</svg>
