<svg width="70" height="70" viewBox="0 0 70 70" fill="none" xmlns="http://www.w3.org/2000/svg">
<path d="M34.9761 0.0028027C15.8617 0.0028027 0.279493 15.4142 0.00368873 34.4643C-0.276315 53.8112 15.4207 69.8428 34.7703 69.9548C40.7456 69.9898 46.5011 68.5282 51.6126 65.7505C52.111 65.4803 52.188 64.7943 51.7638 64.4191L48.4905 61.5183C47.8255 60.9289 46.8791 60.7623 46.0601 61.1095C42.4929 62.6271 38.6162 63.4027 34.6205 63.3537C18.9851 63.1619 6.35279 50.1529 6.60198 34.5189C6.84838 19.0823 19.4821 6.60109 34.9761 6.60109H63.3531V57.0396L47.2529 42.7342C46.7321 42.2708 45.9341 42.3618 45.5141 42.9176C42.9297 46.3393 38.7198 48.4673 34.0437 48.1453C27.5574 47.6973 22.3018 42.4752 21.816 35.9917C21.2349 28.258 27.3642 21.7787 34.9761 21.7787C41.8614 21.7787 47.5315 27.0778 48.1237 33.8119C48.1769 34.4111 48.4471 34.9697 48.8965 35.3687L53.0896 39.0858C53.5656 39.5072 54.3202 39.2496 54.4378 38.6238C54.7402 37.0067 54.8466 35.3225 54.7276 33.5949C54.0528 23.7471 46.0755 15.8244 36.2236 15.2182C24.9282 14.5224 15.4851 23.3579 15.1855 34.4335C14.8929 45.2276 23.7368 54.5322 34.5323 54.7702C39.039 54.8696 43.2167 53.4528 46.5921 50.9971L67.6288 69.6454C68.5304 70.4448 69.9542 69.805 69.9542 68.5996V1.32722C69.9542 0.593606 69.3606 0 68.627 0H34.9761V0.0028027Z" fill="white"/>
</svg>
