<svg width="70" height="70" viewBox="0 0 70 70" fill="none" xmlns="http://www.w3.org/2000/svg">
<path d="M69.7138 39.4442C72.1633 20.2677 58.6208 2.73582 39.4792 0.286257C20.3376 -2.1633 2.73582 11.3793 0.286257 30.5208C-2.1633 49.6624 11.3793 67.2292 30.5208 69.7138C49.6974 72.1633 67.2292 58.6208 69.7138 39.4442Z" fill="white"/>
<path d="M47.6327 22.4723L32.8654 37.2396L28.7011 33.0754C43.2235 18.553 44.6583 19.8128 47.6327 22.4723Z" fill="#1E1E1E"/>
<path d="M32.8654 37.5896C32.7604 37.5896 32.6904 37.5546 32.6204 37.4846L28.4212 33.3204C28.2812 33.1804 28.2812 32.9705 28.4212 32.8305C43.1885 18.0631 44.7283 19.4629 47.8427 22.2624C47.9127 22.3324 47.9477 22.4024 47.9477 22.5073C47.9477 22.6123 47.9127 22.6823 47.8427 22.7523L33.0754 37.4846C33.0404 37.5546 32.9354 37.5896 32.8654 37.5896ZM29.1911 33.0754L32.8654 36.7498L47.1078 22.5073C44.5183 20.1978 42.7686 19.4979 29.1911 33.0754Z" fill="white"/>
<path d="M37.0996 41.4739L33.0753 37.4496L47.8427 22.6823C51.797 26.6715 45.883 33.1454 37.0996 41.4739Z" fill="#323330"/>
<path d="M37.0996 41.8239C36.9946 41.8239 36.9247 41.7889 36.8547 41.7189L32.8304 37.6946C32.7604 37.6246 32.7604 37.5547 32.7604 37.4497C32.7604 37.3447 32.7954 37.2747 32.8654 37.2047L47.6327 22.4374C47.7727 22.2974 47.9827 22.2974 48.1226 22.4374C49.0325 23.2772 49.5224 24.467 49.4874 25.6918C49.4174 29.5761 45.0082 34.5102 37.3796 41.7189C37.2746 41.7889 37.1696 41.8239 37.0996 41.8239ZM33.5653 37.4497C35.8049 39.7243 36.7497 40.6341 37.0996 40.984C42.9786 35.385 48.6825 29.6461 48.7175 25.6918C48.7525 24.782 48.4026 23.8721 47.8077 23.1722L33.5653 37.4497Z" fill="#323330"/>
<path d="M28.7711 33.1802L31.7456 36.1547C31.8156 36.2247 31.8156 36.2947 31.7456 36.3647C31.7106 36.3997 31.7106 36.3997 31.6756 36.3997L25.5167 37.7294C25.2018 37.7644 24.9218 37.5545 24.8518 37.2395C24.8168 37.0645 24.8868 36.8896 24.9918 36.7846L28.5612 33.2152C28.6312 33.1452 28.7361 33.1103 28.7711 33.1802Z" fill="#323330"/>
<path d="M25.4117 38.0795C24.8868 38.0795 24.5019 37.6595 24.5019 37.1346C24.5019 36.8897 24.6069 36.6447 24.7818 36.4697L28.3512 32.9004C28.5612 32.7254 28.8411 32.7254 29.0511 32.9004L32.0255 35.8749C32.2355 36.0498 32.2355 36.3648 32.0255 36.5747C31.9556 36.6447 31.8856 36.6797 31.7806 36.7147L25.6217 38.0445C25.5517 38.0445 25.4817 38.0795 25.4117 38.0795ZM28.6661 33.5653L25.2368 36.9947C25.1668 37.0646 25.1318 37.1696 25.2018 37.2746C25.2368 37.3796 25.3417 37.4146 25.4467 37.3796L31.2207 36.1198L28.6661 33.5653Z" fill="white"/>
<path d="M55.4363 14.2837C53.1967 12.1141 49.5924 12.1841 47.4228 14.4587C45.2532 16.7333 45.3231 20.3026 47.5977 22.4723C49.4524 24.2569 52.2519 24.5719 54.4565 23.2421L50.4672 19.2528L55.4363 14.2837Z" fill="#323330"/>
<path d="M51.517 24.397C48.1926 24.397 45.4981 21.7024 45.4981 18.378C45.4981 15.0536 48.1926 12.3591 51.517 12.3591C53.0567 12.3591 54.5615 12.954 55.6813 14.0388C55.7513 14.1088 55.7863 14.1788 55.7863 14.2838C55.7863 14.3888 55.7513 14.4588 55.6813 14.5287L50.9571 19.2529L54.6665 22.9622C54.8064 23.1022 54.8064 23.3122 54.6665 23.4521C54.6315 23.4871 54.6315 23.4871 54.5965 23.5221C53.6866 24.082 52.6018 24.397 51.517 24.397ZM51.517 13.094C48.5776 13.094 46.198 15.4736 46.233 18.413C46.233 21.3525 48.6125 23.7321 51.552 23.6971C52.3569 23.6971 53.1617 23.5221 53.8966 23.1372L50.2223 19.4978C50.1523 19.4279 50.1173 19.3579 50.1173 19.2529C50.1173 19.1479 50.1523 19.0779 50.2223 19.0079L54.9114 14.3188C53.9666 13.5139 52.7768 13.094 51.517 13.094Z" fill="white"/>
<path d="M55.5413 14.3887L55.4713 14.3187L50.4672 19.2528L54.4215 23.2071C54.8064 22.9622 55.1914 22.6822 55.5063 22.3673C57.7459 20.1627 57.7459 16.5933 55.5413 14.3887Z" fill="#323330"/>
<path d="M54.4565 23.5921C54.3515 23.5921 54.2815 23.5571 54.2115 23.4871L50.2223 19.4978C50.1523 19.4278 50.1173 19.3579 50.1173 19.2529C50.1173 19.1479 50.1523 19.0779 50.2223 19.0079L55.1914 14.0388C55.3313 13.8988 55.5413 13.8988 55.6813 14.0388L55.7863 14.1088C58.1308 16.4534 58.1308 20.2327 55.8213 22.6123C55.4713 22.9622 55.0864 23.2772 54.6665 23.5221C54.5615 23.5571 54.4915 23.5921 54.4565 23.5921ZM50.9571 19.2529L54.4915 22.7872C54.7714 22.6123 55.0514 22.3673 55.2614 22.1574C57.256 20.1627 57.361 16.9083 55.4363 14.8087L50.9571 19.2529Z" fill="white"/>
<path d="M48.2276 23.1022C47.3878 22.2623 46.023 22.2623 45.1832 23.1022L31.9906 36.2948L34.1952 38.4994L48.1576 26.2516C49.0675 25.4817 49.1375 24.117 48.3676 23.2072C48.2976 23.1722 48.2626 23.1372 48.2276 23.1022Z" fill="#323330"/>
<path d="M34.1601 38.8493C34.0552 38.8493 33.9852 38.8143 33.9152 38.7443L31.7106 36.5397C31.5706 36.3997 31.5706 36.1898 31.7106 36.0498L44.9032 22.8572C45.883 21.8774 47.4578 21.8774 48.4376 22.8572C49.4174 23.837 49.4174 25.4117 48.4376 26.3915C48.4026 26.4265 48.3676 26.4615 48.3326 26.4965L34.3701 38.7443C34.3351 38.8143 34.2651 38.8493 34.1601 38.8493ZM32.4804 36.2948L34.1951 38.0095L47.9127 25.9716C48.6825 25.3417 48.7525 24.1869 48.1226 23.4171C47.4927 22.6472 46.338 22.5772 45.5681 23.2071C45.5331 23.2421 45.4981 23.2771 45.4281 23.3121L32.4804 36.2948Z" fill="white"/>
<path d="M21.8774 51.307C21.7374 51.377 21.6674 51.517 21.7024 51.657L22.2973 54.1765C22.4373 54.5265 22.2273 54.9464 21.8424 55.0514C21.5624 55.1564 21.2475 55.0514 21.0725 54.8414L17.2232 51.0271L29.7859 38.4644L34.1252 38.5343L37.0646 41.4738C36.3648 42.0687 32.1305 46.163 21.8774 51.307Z" fill="#323330"/>
<path d="M21.5974 55.4013C21.3175 55.4013 21.0375 55.2963 20.8625 55.0863L17.0482 51.272C16.9782 51.202 16.9433 51.132 16.9433 51.0271C16.9433 50.9221 16.9782 50.8521 17.0482 50.7821L29.611 38.2194C29.681 38.1494 29.7859 38.1144 29.8559 38.1144L34.1951 38.1844C34.3001 38.1844 34.3701 38.2194 34.4401 38.2893L37.3796 41.2288C37.4496 41.2988 37.4846 41.4038 37.4846 41.5088C37.4846 41.6137 37.4496 41.6837 37.3446 41.7537L37.0996 41.9637C33.3903 45.2181 28.3512 48.4725 22.0873 51.587L22.6822 54.0715C22.7872 54.5264 22.5772 55.0163 22.1573 55.2613C21.9474 55.3663 21.7724 55.4013 21.5974 55.4013ZM17.7481 51.0271L21.3525 54.5964C21.4574 54.7714 21.6674 54.8414 21.8424 54.7364C22.0173 54.6314 22.0873 54.4214 21.9823 54.2465L21.3875 51.7269C21.3175 51.412 21.4574 51.132 21.7374 50.9921C27.9313 47.8776 32.9354 44.6582 36.6097 41.4738L34.0202 38.8842L29.9959 38.8143L17.7481 51.0271Z" fill="white"/>
<path d="M14.2487 54.0366L17.2582 51.0271L21.7374 55.5063L14.5987 55.0164C14.2837 54.9814 14.0738 54.7014 14.1088 54.3865C14.1088 54.2465 14.1438 54.1065 14.2487 54.0366Z" fill="#323330"/>
<path d="M21.7374 55.8212L14.5637 55.3312C14.0388 55.2963 13.6888 54.8413 13.7238 54.3164C13.7588 54.1065 13.8288 53.8965 14.0038 53.7565L17.0132 50.7471C17.1532 50.6071 17.3632 50.6071 17.5032 50.7471L21.9824 55.2263C22.0873 55.3312 22.1223 55.4712 22.0523 55.6112C21.9824 55.7512 21.8774 55.8212 21.7374 55.8212ZM17.2582 51.5169L14.4937 54.2814C14.3887 54.3514 14.3887 54.5264 14.4937 54.5964C14.5287 54.6314 14.5637 54.6664 14.6337 54.6664L20.8276 55.0863L17.2582 51.5169Z" fill="white"/>
<path d="M28.5612 40.0741C28.3512 40.0741 28.2112 39.8992 28.2112 39.7242C28.2112 39.6192 28.2462 39.5492 28.3162 39.4792L31.7106 36.0848C31.8506 35.9449 32.0605 35.9449 32.2005 36.0848L34.4051 38.2894C34.5101 38.3944 34.5451 38.4994 34.5101 38.6394C34.4751 38.7444 34.3701 38.8493 34.2301 38.8843L28.6312 40.0741C28.5962 40.0741 28.5612 40.0741 28.5612 40.0741ZM31.9556 36.8197L29.646 39.1293L33.4253 38.3244L31.9556 36.8197Z" fill="white"/>
<path d="M34.1251 38.5345L30.2758 39.3743C29.9959 39.4443 29.7159 39.2693 29.646 38.9894C29.611 38.8144 29.646 38.6395 29.7859 38.4995L31.9205 36.3649L34.1251 38.5345Z" fill="#323330"/>
<path d="M30.2059 39.7242C29.716 39.7242 29.331 39.3393 29.331 38.8493C29.331 38.6044 29.436 38.3944 29.576 38.2195L31.7106 36.0848C31.8506 35.9449 32.0605 35.9449 32.2005 36.0848L34.4051 38.2894C34.5101 38.3944 34.5451 38.4994 34.5101 38.6394C34.4751 38.7444 34.3701 38.8493 34.2302 38.8843L30.3809 39.7242C30.3109 39.7242 30.2409 39.7242 30.2059 39.7242ZM31.9556 36.8197L30.0659 38.7094C29.9959 38.7794 29.9959 38.8493 30.0309 38.9193C30.0659 38.9893 30.1359 39.0243 30.2409 39.0243L33.4603 38.3244L31.9556 36.8197Z" fill="white"/>
<path d="M55.5763 17.7481C55.5063 17.5382 55.2614 17.4332 55.0514 17.5032C54.8414 17.5731 54.7365 17.8181 54.8065 18.0281C54.8065 18.0631 54.8415 18.0981 54.8415 18.133C55.0514 18.553 54.9814 19.0779 54.7015 19.4628C54.5615 19.6378 54.5965 19.8827 54.7365 20.0227C54.9114 20.1627 55.1564 20.1277 55.2964 19.9527C55.8213 19.2878 55.9263 18.448 55.5763 17.7481Z" fill="white"/>
</svg>
