<svg width="120" height="120" viewBox="0 0 120 120" fill="none" xmlns="http://www.w3.org/2000/svg">
<path d="M3.55254 51.4728L38.2618 16.7036L48.4103 26.9122C47.7535 29.4479 47.9437 32.1288 48.9519 34.5464C49.9602 36.964 51.7312 38.9857 53.995 40.3034V73.5714C52.171 74.6245 50.6561 76.1387 49.6021 77.9621C48.5481 79.7855 47.9921 81.854 47.9899 83.9602C47.9899 87.1454 49.2553 90.2003 51.5076 92.4526C53.76 94.7049 56.8148 95.9703 60 95.9703C63.1853 95.9703 66.2401 94.7049 68.4925 92.4526C70.7448 90.2003 72.0102 87.1454 72.0102 83.9602C72.008 81.854 71.452 79.7855 70.398 77.9621C69.344 76.1387 67.8291 74.6245 66.0051 73.5714V44.3869L78.4356 56.9374C78.0786 57.8958 77.9352 58.9204 78.0152 59.94C78.0152 62.3153 78.7196 64.6374 80.0393 66.6124C81.359 68.5875 83.2347 70.1268 85.4293 71.0359C87.6238 71.9449 90.0386 72.1827 92.3684 71.7193C94.6981 71.2559 96.8381 70.112 98.5177 68.4324C100.197 66.7527 101.341 64.6127 101.805 62.283C102.268 59.9533 102.03 57.5384 101.121 55.3439C100.212 53.1493 98.6728 51.2736 96.6978 49.9539C94.7227 48.6342 92.4007 47.9298 90.0253 47.9298C89.0058 47.8498 87.9811 47.9932 87.0228 48.3502L71.5898 32.9172C72.3094 30.1362 72.0084 27.1894 70.7414 24.6113C69.4744 22.0332 67.3253 19.9946 64.684 18.8654C62.241 17.8877 59.5533 17.6987 56.9975 18.3249L46.7889 8.17639L51.5329 3.49245C53.7832 1.25556 56.8272 0 60 0C63.173 0 66.2169 1.25556 68.4672 3.49245L116.508 51.5329C118.744 53.7831 120 56.8271 120 60C120 63.1729 118.744 66.2169 116.508 68.4671L68.4672 116.508C66.2169 118.744 63.173 120 60 120C56.8272 120 53.7832 118.744 51.5329 116.508L3.49249 68.4671C2.37976 67.3478 1.49858 66.0201 0.899326 64.5599C0.300072 63.0998 -0.00550211 61.5358 7.49856e-05 59.9575C0.00565208 58.3792 0.322271 56.8175 0.931829 55.3616C1.54139 53.9057 2.43193 52.5843 3.55254 51.4728Z" fill="white"/>
</svg>
